<svg width="48" height="48" viewBox="0 0 48 48" fill="none" xmlns="http://www.w3.org/2000/svg">
<path d="M35.35 11H13.65C12.4167 11 11.234 11.4939 10.362 12.3729C9.48991 13.252 9 14.4443 9 15.6875V31.3125C9 32.5557 9.48991 33.748 10.362 34.6271C11.234 35.5061 12.4167 36 13.65 36H35.35C36.5833 36 37.766 35.5061 38.638 34.6271C39.5101 33.748 40 32.5557 40 31.3125V15.6875C40 14.4443 39.5101 13.252 38.638 12.3729C37.766 11.4939 36.5833 11 35.35 11ZM34.3115 14.125L24.5 21.5469L14.6885 14.125H34.3115ZM35.35 32.875H13.65C13.2389 32.875 12.8447 32.7104 12.554 32.4174C12.2633 32.1243 12.1 31.7269 12.1 31.3125V16.0781L23.57 24.75C23.8383 24.9528 24.1646 25.0625 24.5 25.0625C24.8354 25.0625 25.1617 24.9528 25.43 24.75L36.9 16.0781V31.3125C36.9 31.7269 36.7367 32.1243 36.446 32.4174C36.1553 32.7104 35.7611 32.875 35.35 32.875Z" fill="white"/>
</svg>
