<svg width="48" height="48" viewBox="0 0 48 48" fill="none" xmlns="http://www.w3.org/2000/svg">
<path fill-rule="evenodd" clip-rule="evenodd" d="M17.4036 9.096C19.1098 9.01745 19.6538 9 24 9C28.3462 9 28.8902 9.01891 30.5949 9.096C32.2996 9.17309 33.4633 9.44509 34.4815 9.83927C35.5476 10.2422 36.5149 10.872 37.3149 11.6865C38.1295 12.4851 38.7578 13.4509 39.1593 14.5185C39.5549 15.5367 39.8255 16.7004 39.904 18.4022C39.9825 20.1113 40 20.6553 40 25C40 29.3462 39.9811 29.8902 39.904 31.5964C39.8269 33.2982 39.5549 34.4618 39.1593 35.48C38.7578 36.5478 38.1284 37.5152 37.3149 38.3149C36.5149 39.1295 35.5476 39.7578 34.4815 40.1593C33.4633 40.5549 32.2996 40.8255 30.5978 40.904C28.8902 40.9825 28.3462 41 24 41C19.6538 41 19.1098 40.9811 17.4036 40.904C15.7018 40.8269 14.5382 40.5549 13.52 40.1593C12.4522 39.7578 11.4848 39.1284 10.6851 38.3149C9.8711 37.5159 9.24119 36.5489 8.83927 35.4815C8.44509 34.4633 8.17455 33.2996 8.096 31.5978C8.01745 29.8887 8 29.3447 8 25C8 20.6538 8.01891 20.1098 8.096 18.4051C8.17309 16.7004 8.44509 15.5367 8.83927 14.5185C9.24178 13.451 9.87217 12.4841 10.6865 11.6851C11.4851 10.8713 12.4516 10.2414 13.5185 9.83927C14.5367 9.44509 15.7004 9.17455 17.4022 9.096H17.4036ZM30.4655 11.976C28.7782 11.8989 28.272 11.8829 24 11.8829C19.728 11.8829 19.2218 11.8989 17.5345 11.976C15.9738 12.0473 15.1273 12.3076 14.5629 12.5273C13.8167 12.8182 13.2829 13.1629 12.7229 13.7229C12.1921 14.2393 11.7835 14.868 11.5273 15.5629C11.3076 16.1273 11.0473 16.9738 10.976 18.5345C10.8989 20.2218 10.8829 20.728 10.8829 25C10.8829 29.272 10.8989 29.7782 10.976 31.4655C11.0473 33.0262 11.3076 33.8727 11.5273 34.4371C11.7833 35.1309 12.192 35.7607 12.7229 36.2771C13.2393 36.808 13.8691 37.2167 14.5629 37.4727C15.1273 37.6924 15.9738 37.9527 17.5345 38.024C19.2218 38.1011 19.7265 38.1171 24 38.1171C28.2735 38.1171 28.7782 38.1011 30.4655 38.024C32.0262 37.9527 32.8727 37.6924 33.4371 37.4727C34.1833 37.1818 34.7171 36.8371 35.2771 36.2771C35.808 35.7607 36.2167 35.1309 36.4727 34.4371C36.6924 33.8727 36.9527 33.0262 37.024 31.4655C37.1011 29.7782 37.1171 29.272 37.1171 25C37.1171 20.728 37.1011 20.2218 37.024 18.5345C36.9527 16.9738 36.6924 16.1273 36.4727 15.5629C36.1818 14.8167 35.8371 14.2829 35.2771 13.7229C34.7606 13.1921 34.1319 12.7836 33.4371 12.5273C32.8727 12.3076 32.0262 12.0473 30.4655 11.976ZM21.9564 29.9324C23.0977 30.4075 24.3686 30.4716 25.5519 30.1138C26.7352 29.756 27.7577 28.9984 28.4445 27.9705C29.1314 26.9426 29.4401 25.7082 29.3179 24.478C29.1957 23.2478 28.6502 22.0981 27.7745 21.2255C27.2163 20.6676 26.5414 20.2405 25.7983 19.9748C25.0552 19.7091 24.2624 19.6114 23.4771 19.6889C22.6917 19.7664 21.9333 20.017 21.2564 20.4227C20.5796 20.8285 20.0011 21.3793 19.5626 22.0354C19.1242 22.6916 18.8366 23.4368 18.7208 24.2174C18.6049 24.998 18.6635 25.7946 18.8924 26.5498C19.1214 27.3051 19.5149 28.0002 20.0447 28.5851C20.5745 29.1699 21.2274 29.6301 21.9564 29.9324ZM18.1847 19.1847C18.9484 18.4211 19.855 17.8153 20.8528 17.402C21.8506 16.9887 22.92 16.776 24 16.776C25.08 16.776 26.1494 16.9887 27.1472 17.402C28.145 17.8153 29.0516 18.4211 29.8153 19.1847C30.5789 19.9484 31.1847 20.855 31.598 21.8528C32.0113 22.8506 32.224 23.92 32.224 25C32.224 26.08 32.0113 27.1494 31.598 28.1472C31.1847 29.145 30.5789 30.0516 29.8153 30.8153C28.273 32.3576 26.1812 33.224 24 33.224C21.8188 33.224 19.727 32.3576 18.1847 30.8153C16.6424 29.273 15.776 27.1812 15.776 25C15.776 22.8188 16.6424 20.727 18.1847 19.1847ZM34.048 18.0007C34.2372 17.8222 34.3887 17.6075 34.4935 17.3694C34.5983 17.1313 34.6543 16.8746 34.6581 16.6144C34.6619 16.3543 34.6134 16.0961 34.5156 15.855C34.4178 15.6139 34.2726 15.3949 34.0887 15.211C33.9047 15.027 33.6857 14.8818 33.4446 14.784C33.2036 14.6862 32.9453 14.6378 32.6852 14.6416C32.4251 14.6454 32.1683 14.7013 31.9302 14.8061C31.6921 14.9109 31.4774 15.0624 31.2989 15.2516C30.9517 15.6197 30.7616 16.1085 30.769 16.6144C30.7764 17.1203 30.9806 17.6035 31.3384 17.9612C31.6962 18.319 32.1793 18.5232 32.6852 18.5306C33.1911 18.538 33.68 18.3479 34.048 18.0007Z" fill="white"/>
</svg>
