<?xml version="1.0" encoding="UTF-8"?>
<!DOCTYPE svg PUBLIC "-//W3C//DTD SVG 1.1//EN" "http://www.w3.org/Graphics/SVG/1.1/DTD/svg11.dtd">
<!-- Creator: CorelDRAW 2021 (64-Bit) -->
<svg xmlns="http://www.w3.org/2000/svg" xml:space="preserve" width="210mm" height="200.857mm" version="1.1" style="shape-rendering:geometricPrecision; text-rendering:geometricPrecision; image-rendering:optimizeQuality; fill-rule:evenodd; clip-rule:evenodd"
viewBox="0 0 20985.73 20072.11"
 xmlns:xlink="http://www.w3.org/1999/xlink"
 xmlns:xodm="http://www.corel.com/coreldraw/odm/2003">
 <defs>
  <style type="text/css">
   <![CDATA[
    .fil0 {fill:#130734}
   ]]>
  </style>
 </defs>
 <g id="Layer_x0020_1">
  <metadata id="CorelCorpID_0Corel-Layer"/>
  <g id="_625242616">
   <path class="fil0" d="M15979.84 0c184.13,0 333.95,149.82 333.95,333.96 0,181.03 -149.82,330.85 -333.95,330.85 -68.66,0 -131.09,-18.74 -184.14,-56.18 -37.45,37.44 -87.39,59.3 -143.57,59.3 -112.37,0 -205.99,-93.64 -205.99,-205.99 0,-115.49 93.63,-205.99 205.99,-205.99l3.11 0c37.45,-146.69 168.55,-255.94 324.61,-255.94l0 -0.01zm3083.69 1938.24c93.64,0 181.03,24.96 255.93,71.78 -43.69,-12.49 -90.5,-18.73 -137.33,-18.73 -296.51,0 -539.96,243.45 -539.96,539.96 0,53.05 9.35,106.12 21.85,156.06 -49.94,-78.04 -81.14,-168.55 -81.14,-268.42 0,-265.31 215.36,-480.65 480.65,-480.65l0.01 -0.01zm-3074.34 -1866.45c118.6,0 218.48,78.03 252.82,184.13 -53.05,-59.3 -131.09,-96.74 -218.48,-96.74 -149.82,0 -271.54,112.36 -290.26,255.93 -6.25,-24.96 -9.36,-49.94 -9.36,-78.03 0,-146.69 118.6,-265.31 265.3,-265.31l-0.01 0.02zm4338.4 10034.49c43.69,0 81.14,15.61 112.36,40.58l-6.25 0c-127.96,0 -237.21,90.51 -262.17,212.24 -12.48,-24.96 -18.73,-49.94 -18.73,-78.03 0,-96.75 78.03,-174.79 174.78,-174.79zm-2512.53 -674.16c43.7,0 81.15,12.49 112.37,40.58l-6.25 0c-127.97,0 -237.21,87.39 -262.17,209.12 -12.49,-24.96 -18.74,-49.95 -18.74,-78.04 0,-93.64 78.04,-171.66 174.78,-171.66zm-1716.62 -243.45c21.85,0 40.57,9.36 56.18,21.85l-3.12 0c-62.43,0 -115.48,43.7 -127.97,103 -6.25,-12.49 -9.35,-24.96 -9.35,-37.45 0,-46.81 37.44,-87.39 84.27,-87.39l-0.01 0zm817.73 -37.45c21.86,0 40.58,9.36 56.19,21.86l-6.25 0c-62.43,0 -112.37,43.69 -127.97,99.87 -3.12,-9.35 -6.25,-21.85 -6.25,-34.34 0,-49.94 37.45,-87.39 84.27,-87.39zm-902.02 -558.68c31.21,0 62.43,12.49 84.28,31.21l-6.25 0c-96.75,0 -174.78,65.55 -196.64,156.06 -9.35,-15.61 -12.48,-34.34 -12.48,-56.19 0,-71.78 59.3,-131.08 131.08,-131.08zm4584.98 -321.49c141.15,0 271.74,33.77 386.59,94.36l0 -3056.25 -15.17 -0.07c-792.77,0 -1466.95,514.99 -1707.28,1226.61 84.28,-777.16 739.72,-1382.67 1538.72,-1382.67l0.01 0.01c62.12,0 123.42,3.75 183.72,10.96l0 -2220.9c-477.05,67.51 -865.24,406.67 -1004.59,855.37 24.08,-545.11 460.85,-982.63 1004.59,-1012.67l0 -336.33c-96.89,-309.31 -385.69,-533.06 -729.92,-533.06l0.01 0c-252.81,0 -474.42,121.73 -614.86,312.12 -78.04,-237.21 -299.64,-405.75 -561.82,-405.75 -327.72,0 -593.02,265.31 -593.02,593.03 0,315.24 246.57,574.28 555.57,593.02 -65.55,96.75 -106.13,212.24 -106.13,340.21 0,37.46 3.12,78.03 9.36,112.36 -12.49,0 -28.09,0 -43.7,0 -90.51,0 -177.9,21.85 -255.93,56.18 -12.49,-99.88 -96.75,-177.91 -202.87,-177.91 -115.49,0 -205.99,90.51 -205.99,205.99 0,40.58 12.47,78.03 31.21,109.24l-3.12 0c-171.67,0 -309,140.45 -309,312.12 0,146.69 102.99,271.55 240.33,302.75 -93.64,53.05 -171.66,134.2 -218.48,234.08 -87.39,-74.9 -202.87,-118.6 -327.72,-118.6 -71.77,0 -143.56,15.6 -205.99,43.7 -40.58,-137.34 -165.42,-237.22 -312.11,-246.57 6.24,-18.72 9.35,-40.57 9.35,-59.3 0,-109.25 -87.39,-196.64 -193.51,-196.64 -109.25,0 -196.64,87.39 -196.64,196.64 0,71.78 40.58,137.33 99.88,168.54 -28.08,34.34 -53.05,71.79 -68.66,115.48 -109.24,-56.17 -237.21,-90.51 -368.3,-90.51 -446.33,0 -808.38,362.05 -808.38,808.39 0,190.38 65.55,365.16 174.78,502.5 -84.27,37.46 -162.29,90.52 -224.72,156.06 -78.04,-56.17 -174.78,-90.51 -280.91,-90.51l-6.25 0c9.37,-28.09 12.49,-56.18 12.49,-84.27 0,-171.67 -140.44,-312.12 -312.12,-312.12 -171.66,0 -308.99,140.44 -308.99,312.12 0,140.44 93.64,259.05 218.47,296.51 -49.94,74.9 -78.03,165.42 -78.03,262.17 0,146.69 65.55,274.66 168.54,362.05 -99.88,18.72 -190.38,62.42 -268.42,118.6 -53.05,-252.82 -265.3,-452.56 -527.47,-480.65 37.44,-40.58 59.3,-93.64 59.3,-149.82 0,-34.33 -9.36,-65.55 -21.86,-96.75 109.25,0 196.64,-87.39 196.64,-196.63 0,-109.26 -90.52,-199.76 -199.76,-199.76 -109.24,0 -196.63,90.52 -196.63,199.76 0,21.85 3.12,46.81 9.35,65.55 -3.11,0 -9.35,0 -15.6,0 -43.69,0 -84.26,12.48 -118.6,34.33 -9.36,-62.43 -65.55,-112.36 -131.09,-112.36 -71.78,0 -134.21,59.3 -134.21,131.09 0,24.96 9.37,49.93 18.73,68.65 -9.35,0 -21.85,0 -31.21,0 -193.51,0 -346.44,152.94 -346.44,343.33 0,9.35 0,15.6 0,24.96 -118.6,-71.79 -252.82,-112.37 -399.51,-112.37 -199.74,0 -377.65,74.92 -514.99,193.52 -62.41,-103.01 -171.65,-171.66 -299.63,-171.66 -190.38,0 -346.44,156.06 -346.44,346.44 0,193.52 156.06,346.45 346.44,346.45 9.37,0 21.86,0 34.34,0 -3.11,21.85 -3.11,43.69 -3.11,68.65 0,355.81 237.21,655.45 561.81,752.2 -81.15,37.45 -134.22,115.48 -134.22,209.12 0,127.96 103,234.08 230.97,234.08 115.48,0 209.12,-81.14 230.96,-190.38 37.45,31.21 87.39,53.05 140.44,59.3 -59.3,62.43 -96.74,146.7 -96.74,237.21 0,124.86 65.54,234.09 165.42,293.39 -62.43,31.22 -106.12,96.76 -106.12,171.67 0,102.99 84.26,187.26 190.38,187.26 103,0 187.27,-84.27 187.27,-187.26 0,-49.95 -18.72,-93.64 -46.81,-124.85 121.73,-18.72 224.72,-99.87 268.42,-212.24 65.54,28.09 134.2,46.83 205.99,56.18 24.97,65.55 62.43,127.96 106.12,184.14 -62.43,31.21 -106.12,93.64 -106.12,168.54 0,103 84.26,187.27 190.38,187.27 81.16,0 152.95,-53.06 177.92,-127.97 118.59,65.55 259.05,103 405.74,103 461.94,0 836.47,-374.55 836.47,-839.59 0,-87.39 -12.48,-174.78 -37.44,-255.94 74.91,43.7 156.05,71.79 243.45,84.28 0,21.85 -3.12,43.69 -3.12,65.54 0,209.12 87.39,399.51 227.84,536.85 -56.17,31.2 -96.75,93.63 -96.75,162.29 0,103 84.28,187.27 187.27,187.27 103,0 184.14,-78.04 190.39,-177.91 74.9,24.96 156.04,37.44 240.33,37.44 6.25,0 9.35,0 15.6,0 -9.35,24.96 -15.6,53.05 -15.6,81.15 0,124.84 102.99,227.84 227.84,227.84 37.45,0 71.79,-9.36 103,-24.96 31.2,24.97 65.54,49.94 102.99,71.78 -59.3,18.74 -102.99,71.79 -102.99,137.34 0,78.03 65.54,143.57 143.57,143.57 78.03,0 143.57,-65.55 143.57,-143.57 0,-24.96 -6.25,-46.81 -15.6,-65.55 65.54,18.74 134.2,28.09 205.99,28.09 411.99,0 745.95,-333.96 745.95,-745.95 0,-24.96 0,-49.94 -3.12,-74.9 181.03,202.87 443.2,330.85 733.47,330.85 302.73,0 571.15,-137.34 749.07,-349.57 90.5,78.04 196.63,140.45 312.11,181.03 -112.35,156.05 -174.78,349.57 -174.78,558.69 0,427.59 274.66,792.77 658.56,923.86 -112.36,24.96 -193.52,121.73 -193.52,240.33 0,134.22 109.25,243.45 243.45,243.45 134.22,0 243.45,-109.24 243.45,-243.45 0,-78.03 -37.44,-149.82 -93.63,-193.52 37.44,3.13 78.02,6.25 118.6,6.25 142.2,0 277.24,-30.34 399.06,-84.85l0 -1611.44c-74.19,-17.71 -150.6,-26.57 -230.53,-26.57 -461.94,0 -848.95,305.86 -980.04,720.99 6.25,-449.44 371.42,-811.5 823.99,-811.5l0 -0.02zm-1863.33 -1304.63c171.66,0 333.96,53.05 465.04,143.57 -99.87,-34.34 -209.12,-49.94 -321.47,-49.94 -440.08,0 -814.62,271.54 -967.56,655.44 40.58,-421.35 393.26,-749.07 823.99,-749.07l0 -0.01zm-1479.42 845.84c93.64,0 184.14,21.85 265.3,56.18 -31.21,-3.12 -65.54,-3.12 -96.74,-3.12 -433.85,0 -786.54,349.56 -786.54,783.41 -18.74,-59.3 -28.09,-121.73 -28.09,-187.27 0,-358.94 287.14,-649.2 646.07,-649.2zm-808.38 -449.44c31.21,0 62.43,0 93.64,6.25 -380.79,71.78 -674.17,390.14 -717.86,780.29 -9.36,-46.82 -15.61,-96.75 -15.61,-146.69 0,-355.81 287.15,-639.84 639.84,-639.84l0 -0.01zm-1170.42 -1573.06c40.58,0 81.14,9.36 118.6,18.74 -246.57,28.09 -436.95,234.08 -436.95,483.78 0,28.09 3.11,53.05 6.24,78.03 -37.44,-59.3 -59.3,-131.08 -59.3,-205.99 0,-205.99 165.43,-374.54 371.42,-374.54l0 -0.02zm-312.12 -430.73c59.3,0 115.49,21.86 156.06,56.19l-9.35 0c-181.03,0 -327.72,124.84 -365.17,293.39 -15.61,-31.21 -24.96,-68.66 -24.96,-106.13 0,-134.21 109.24,-243.45 243.45,-243.45l-0.03 0zm-755.33 224.73c31.21,0 62.43,12.49 84.28,31.21l-6.25 0c-96.75,0 -174.78,68.65 -196.64,159.18 -9.35,-18.74 -12.48,-37.45 -12.48,-59.3 0,-71.79 59.3,-131.09 131.08,-131.09zm-593.02 399.51c49.94,0 99.88,12.48 140.44,37.44 -6.25,0 -12.48,0 -18.73,0 -184.14,0 -343.33,115.49 -402.64,277.78 -3.12,-9.36 -3.12,-21.85 -3.12,-31.21 0,-159.18 127.97,-284.02 284.03,-284.02l0.01 0zm-842.71 1757.21c49.95,0 93.64,15.61 131.09,46.82l-9.36 0c-146.69,0 -271.54,102.99 -302.75,240.32 -12.48,-24.96 -18.73,-56.18 -18.73,-87.39 0,-109.24 90.51,-199.75 199.75,-199.75l0 0.01zm1298.4 923.87c31.21,0 59.3,12.48 84.27,31.2l-6.25 0c-96.74,0 -177.91,65.55 -196.63,156.06 -9.36,-15.6 -12.49,-37.44 -12.49,-56.18 0,-71.79 56.18,-131.08 131.09,-131.08zm-811.5 -74.92c31.21,0 62.43,9.35 84.27,31.21l-6.25 0c-93.64,0 -174.78,65.55 -196.63,156.06 -6.25,-15.61 -12.49,-37.45 -12.49,-56.19 0,-71.78 59.3,-131.08 131.09,-131.08zm-1944.47 -1460.71c34.34,0 65.55,15.61 87.39,40.58 -6.25,-3.12 -15.61,-3.12 -21.85,-3.12 -78.04,0 -143.58,40.58 -177.92,103 -3.11,-6.25 -3.11,-15.61 -3.11,-24.96 0,-62.43 53.05,-115.48 115.48,-115.48l0 -0.02zm730.34 -864.55c49.95,0 96.75,12.49 134.22,34.34 -9.35,0 -15.6,0 -24.96,0 -174.78,0 -324.6,109.25 -377.65,265.3 -3.12,-9.35 -3.12,-18.73 -3.12,-31.2 0,-149.82 121.73,-268.42 271.54,-268.42l-0.02 -0.02zm1697.91 1095.53c43.69,0 87.39,6.25 127.97,18.73 -265.31,59.3 -468.18,280.91 -496.27,555.57 -24.96,-49.95 -37.45,-109.25 -37.45,-168.55 0,-224.72 181.03,-405.74 405.75,-405.74l0 -0.01zm923.86 56.18c68.66,0 137.34,9.36 202.87,28.09 -480.64,34.34 -858.32,433.85 -858.32,923.86l0 3.12c-31.21,-78.03 -46.81,-165.42 -46.81,-252.81 0,-390.14 315.24,-702.26 702.25,-702.26zm-611.75 -1179.8c121.73,0 237.22,40.58 330.86,106.13 -65.55,-18.74 -134.22,-31.21 -206,-31.21 -343.32,0 -633.58,243.45 -702.25,568.04 0,-21.85 -3.12,-40.58 -3.12,-62.43 0,-318.36 259.05,-580.54 580.54,-580.54l-0.02 0zm-1201.64 18.74c162.3,0 312.12,56.18 433.85,149.82 -96.75,-37.45 -199.75,-59.3 -309,-59.3 -418.24,0 -761.55,312.11 -817.74,714.74 -6.24,-34.34 -9.35,-68.66 -9.35,-102.99 0,-387.02 315.24,-702.26 702.25,-702.26l0 -0.01zm4981.37 -951.96c43.69,0 84.27,6.25 121.73,15.61 -221.61,15.6 -408.87,162.29 -480.65,362.05 21.85,0 43.69,-3.12 65.55,-3.12 109.24,0 212.23,31.21 302.75,81.14 -46.82,-9.35 -93.64,-12.49 -140.45,-12.49 -408.86,0 -739.71,327.72 -739.71,736.6 0,15.6 3.12,34.34 3.12,49.94 -31.21,-71.78 -46.82,-152.94 -46.82,-234.08 0,-290.26 199.76,-533.72 465.05,-599.26 28.09,-224.72 218.48,-396.39 449.44,-396.39l-0.01 0zm-199.75 -823.97c115.49,0 218.48,49.94 290.27,131.09 -56.18,-24.97 -118.6,-37.45 -187.27,-37.45 -246.57,0 -449.44,184.14 -483.78,421.35 -9.36,-37.45 -15.6,-78.04 -15.6,-118.6 0,-218.48 177.91,-396.39 396.38,-396.39zm-1226.62 -37.46c146.69,0 284.03,46.81 396.39,127.97 -84.27,-28.09 -171.66,-43.7 -265.3,-43.7 -405.75,0 -742.85,299.63 -802.14,689.77 -3.11,-31.21 -6.24,-65.55 -6.24,-96.74 0,-374.55 302.75,-677.3 677.29,-677.3zm2259.71 -811.5c90.51,0 174.78,31.21 240.33,81.14 -43.7,-12.48 -90.51,-18.73 -137.34,-18.73 -240.32,0 -436.95,171.66 -480.64,396.39 -6.25,-21.86 -9.36,-46.82 -9.36,-71.79 0,-93.64 34.34,-181.03 87.39,-246.57 -6.25,0 -15.6,0 -24.96,0 -162.3,0 -296.51,131.09 -296.51,293.4 0,12.48 0,24.96 3.12,34.34 -21.86,-37.45 -34.34,-81.15 -34.34,-124.85 0,-143.58 115.48,-259.06 259.05,-259.06 43.7,0 84.27,9.36 118.6,31.21 71.79,-71.78 168.54,-115.48 274.66,-115.48zm-1722.88 343.34c46.82,0 87.39,21.85 115.48,56.18 -21.85,-9.36 -46.81,-12.49 -71.78,-12.49 -93.64,0 -168.55,65.55 -187.27,149.82 -3.12,-12.48 -6.25,-28.09 -6.25,-46.81 0,-81.14 65.55,-146.69 149.82,-146.69l0 -0.01zm1498.15 -586.78c71.79,0 131.09,46.82 152.94,112.37 -34.34,-34.34 -81.14,-59.3 -134.21,-59.3 -87.39,0 -162.3,68.65 -174.78,156.06 -3.12,-15.61 -6.25,-31.21 -6.25,-46.82 0,-90.51 71.78,-162.29 162.29,-162.29l0.01 -0.03zm1838.36 -1342.1c131.09,0 255.94,37.45 362.05,102.99 -62.43,-15.6 -127.97,-24.96 -193.51,-24.96 -427.6,0 -774.05,346.45 -774.05,774.05 0,78.03 12.49,149.82 31.21,221.6 -71.78,-109.24 -115.48,-243.45 -115.48,-383.9 0,-380.78 309,-689.77 689.77,-689.77l0.01 -0.01zm-2484.43 7319.1c124.85,0 224.73,99.88 224.73,224.73 0,124.84 -99.88,227.84 -224.73,227.84 -124.85,0 -224.73,-103 -224.73,-227.84 0,-124.85 99.88,-224.73 224.73,-224.73zm-1704.14 -227.84c78.03,0 143.57,62.43 143.57,143.57 0,78.04 -65.55,143.57 -143.57,143.57 -81.14,0 -143.57,-65.54 -143.57,-143.57 0,-81.14 62.43,-143.57 143.57,-143.57zm-468.18 -611.75c53.05,0 96.75,40.58 96.75,93.64 0,53.05 -43.7,96.75 -96.75,96.75 -49.94,0 -93.64,-43.7 -93.64,-96.75 0,-53.05 43.7,-93.64 93.64,-93.64zm-4307.18 -1438.85c87.39,0 156.05,71.79 156.05,159.18 0,87.39 -68.65,156.06 -156.05,156.06 -87.4,0 -159.18,-68.66 -159.18,-156.06 0,-87.39 71.78,-159.18 159.18,-159.18zm5983.25 -3558.1c65.54,0 118.6,53.05 118.6,118.59 0,62.43 -53.06,115.49 -118.6,115.49 -65.55,0 -118.6,-53.06 -118.6,-115.49 0,-65.54 53.05,-118.59 118.6,-118.59z"/>
   <path class="fil0" d="M701.8 5000.09c240.33,0 436.95,193.51 440.08,430.71 34.34,-15.6 78.04,-28.09 121.73,-28.09 146.69,0 268.42,121.73 268.42,271.54 0,146.69 -121.73,268.42 -268.42,268.42 -34.34,0 -68.65,-6.25 -96.74,-18.74 -6.25,184.14 -156.06,327.72 -340.21,327.72 -190.39,0 -343.33,-152.93 -343.33,-340.2 0,-28.09 6.25,-56.18 12.49,-84.28 -140.44,-74.9 -234.08,-218.47 -234.08,-387.02 0,-243.45 196.63,-440.08 440.08,-440.08l-0.02 0.03zm-6.25 71.77c93.64,0 174.78,31.21 240.33,87.39 -49.94,-18.73 -103,-28.09 -156.06,-28.09 -212.24,0 -393.26,143.57 -452.56,337.09 0,-9.36 0,-18.74 0,-28.09 0,-202.88 165.43,-368.3 368.3,-368.3zm895.77 13327.31c37.45,0 74.91,15.61 103,37.45 -112.37,6.25 -212.24,68.65 -265.3,159.18 -3.12,-9.36 -3.12,-21.86 -3.12,-31.21 0,-90.51 71.78,-165.43 165.42,-165.43zm-1304.63 237.21c109.24,0 209.12,37.45 290.26,103 -49.94,-12.49 -102.99,-18.74 -156.06,-18.74 -158.94,0 -305.26,55.08 -420.89,147.13l0 706.48c83.5,50.5 181.6,79.62 286.7,79.62 302.75,0 549.33,-246.56 549.33,-549.32 0,-305.87 -246.57,-552.44 -549.33,-552.44 -105.1,0 -203.19,29.12 -286.7,79.75l0 102.49c79.24,-61.49 178.69,-97.96 286.7,-97.96zm8427.09 -5855.28c109.25,0 215.36,37.45 296.51,103 -46.81,-9.36 -93.64,-15.61 -140.44,-15.61 -290.26,0 -536.84,181.03 -633.59,433.85 0,-15.61 -3.11,-28.09 -3.11,-43.7 0,-265.3 215.35,-477.54 480.64,-477.54l-0.01 0zm-3935.77 1697.92c43.7,0 84.28,9.35 115.48,31.21 -152.93,3.12 -284.02,102.99 -333.95,240.33 -3.12,-15.61 -3.12,-31.21 -3.12,-49.95 0,-121.73 99.88,-221.6 221.61,-221.6l-0.02 0.01zm-614.86 855.19c68.65,0 134.21,15.61 193.51,43.7 -18.73,-3.12 -37.44,-3.12 -53.05,-3.12 -274.66,0 -505.63,184.14 -574.29,433.85 -3.11,-12.49 -3.11,-24.96 -3.11,-40.58 0,-240.33 196.63,-433.85 436.95,-433.85l-0.01 0zm-1176.68 739.72c65.55,0 121.73,28.09 162.29,68.65 -31.21,-6.25 -59.3,-12.48 -93.64,-12.48 -115.48,0 -221.6,56.18 -290.26,143.57 12.49,-112.37 109.24,-199.76 221.61,-199.76l0 0.02zm970.67 -1847.72c81.15,0 159.18,18.74 227.85,53.05 -21.86,-3.11 -40.58,-3.11 -62.43,-3.11 -324.61,0 -596.13,215.35 -680.42,511.87 0,-15.61 -3.11,-31.21 -3.11,-46.82 0,-284.02 234.08,-514.99 518.11,-514.99l0 -0.01zm-805.25 -7437.7c96.75,0 184.14,34.34 249.69,93.64 -49.95,-15.61 -103,-24.96 -159.18,-24.96 -212.24,0 -393.26,131.08 -465.04,318.35 0,-3.12 0,-6.25 0,-9.35 0,-209.12 168.54,-377.66 374.54,-377.66l0 -0.01zm4510.07 671.03c37.45,0 68.66,15.61 93.64,40.58 -18.73,-6.25 -37.45,-9.35 -59.3,-9.35 -68.65,0 -131.08,40.57 -162.29,96.74 0,-68.65 59.3,-127.97 127.97,-127.97l-0.02 0zm689.77 596.15c49.95,0 99.88,15.6 137.34,46.81 -12.49,-3.12 -24.96,-3.12 -37.45,-3.12 -143.57,0 -268.42,84.28 -330.85,205.99 0,-6.24 0,-12.48 0,-18.73 0,-127.97 102.99,-230.96 230.96,-230.96l0 0.01zm-1750.95 -265.3c84.27,0 159.17,34.33 212.24,90.5 -40.58,-15.6 -84.28,-21.85 -131.09,-21.85 -159.18,0 -299.63,90.51 -371.42,221.61 0,-162.3 131.09,-290.26 290.27,-290.26zm-446.34 1338.97c96.75,0 184.14,40.58 246.57,102.99 -49.94,-21.85 -106.12,-31.2 -165.42,-31.2 -196.64,0 -362.05,118.6 -427.6,290.26 0,-6.25 0,-9.36 0,-12.49 0,-193.51 156.06,-349.56 346.44,-349.56zm-2256.6 -976.93c96.75,0 181.03,40.58 246.57,103 -53.05,-18.73 -109.24,-31.21 -168.54,-31.21 -193.52,0 -358.94,121.73 -427.6,290.26 0,-3.11 0,-9.35 0,-12.48 0,-193.52 156.06,-349.57 349.56,-349.57zm1083.05 2216.02c81.14,0 152.93,31.21 205.99,84.27 -40.58,-12.49 -84.28,-21.85 -127.97,-21.85 -174.78,0 -321.47,124.84 -352.7,287.14 -6.24,-21.85 -9.35,-43.69 -9.35,-65.55 0,-156.06 127.97,-284.02 284.02,-284.02l0.02 -0.01zm-171.67 958.19c56.18,0 106.13,21.85 140.44,59.3 -28.09,-12.49 -56.18,-15.61 -87.39,-15.61 -121.73,0 -224.72,84.27 -246.56,199.76 -3.12,-12.49 -6.25,-28.09 -6.25,-46.82 0,-109.24 87.39,-196.63 199.75,-196.63l0 -0.01zm-905.13 -440.09c81.15,0 149.82,31.21 205.99,81.15 -43.69,-15.61 -87.39,-21.86 -131.08,-21.86 -162.3,0 -302.75,90.51 -374.55,221.61 12.49,-156.06 143.57,-280.91 299.63,-280.91l0.01 0zm-181.03 505.63c99.88,0 190.39,34.34 262.18,93.64 -46.82,-15.6 -99.88,-21.85 -149.83,-21.85 -249.68,0 -458.8,171.66 -514.98,405.75 -6.25,-21.86 -6.25,-46.82 -6.25,-68.66 0,-227.84 184.14,-408.86 408.86,-408.86l0.01 -0.02zm848.95 -2091.17c127.97,0 249.69,37.45 352.69,99.88 -71.78,-18.74 -146.69,-31.21 -224.72,-31.21 -377.66,0 -692.9,259.05 -786.54,605.51 0,-6.25 0,-12.49 0,-18.74 0,-362.05 296.51,-655.44 658.56,-655.44zm-689.77 905.13c65.55,0 124.85,15.6 177.91,40.58 -3.12,0 -6.25,0 -9.35,0 -302.75,0 -549.33,246.56 -549.33,552.43 0,3.12 0,9.36 0,15.61 -28.09,-56.19 -40.58,-118.6 -40.58,-184.14 0,-234.08 187.27,-424.48 421.35,-424.48zm-3196.06 967.56c62.43,0 121.73,21.85 165.43,62.43 -21.85,-6.25 -46.81,-9.36 -68.66,-9.36 -115.48,0 -215.36,56.18 -274.65,143.57 71.78,15.61 137.33,43.7 190.38,87.4 -46.81,-12.49 -96.75,-18.74 -149.82,-18.74 -287.15,0 -521.24,221.61 -539.96,502.5 -3.21,-11.23 -6.22,-22.66 -8.9,-34.26l0 353.24c21.66,-19.65 43,-41.34 61.99,-63.04 99.87,78.03 224.72,124.85 362.04,124.85 137.34,0 262.18,-46.82 362.05,-124.85 0,6.25 0,12.48 0,18.73 0,402.64 327.72,730.35 730.35,730.35 402.64,0 730.35,-327.72 730.35,-730.35 0,-78.03 -12.49,-152.94 -34.34,-224.72 62.43,-31.22 118.61,-74.92 165.43,-127.97 143.57,78.03 305.86,121.73 477.54,121.73 137.33,0 268.42,-28.09 387.02,-78.03 49.94,221.59 246.56,387.02 483.78,387.02 274.65,0 496.26,-221.61 496.26,-496.27 0,-112.35 -37.45,-215.35 -99.88,-299.63 93.64,-59.31 159.18,-165.43 159.18,-287.14 0,-74.92 -24.96,-143.58 -65.55,-199.76 96.76,-71.79 162.31,-184.15 171.67,-315.25 59.3,15.61 121.71,21.86 184.13,21.86 24.97,0 46.82,0 68.66,-3.12 3.13,196.63 162.31,355.81 358.94,355.81 196.64,0 355.81,-159.18 355.81,-355.81 0,-24.97 -3.13,-49.94 -6.24,-71.79 65.54,-43.69 109.24,-115.48 109.24,-196.63 0,-103.01 -65.56,-187.27 -156.06,-221.61 37.45,-90.52 59.3,-190.4 59.3,-293.39 0,-224.73 -93.64,-427.6 -243.45,-571.17 106.11,-37.45 184.14,-140.46 184.14,-259.06 0,-152.93 -124.85,-277.77 -277.78,-277.77 -149.82,0 -274.66,124.85 -274.66,277.77 0,21.86 3.12,40.58 9.36,62.43 -59.3,-15.6 -121.73,-21.85 -187.27,-21.85 -149.82,0 -287.15,40.58 -405.74,112.37 -18.73,-127.97 -68.66,-246.57 -140.45,-346.45 171.65,-56.17 299.63,-218.48 299.63,-408.86 0,-124.86 -53.06,-234.1 -134.21,-315.25 93.63,-40.56 162.29,-137.32 162.29,-249.68 0,-152.94 -124.85,-274.66 -274.66,-274.66 -127.97,0 -237.21,87.39 -268.42,205.99 -31.22,-31.21 -74.92,-49.95 -121.73,-49.95 -99.88,0 -177.91,81.16 -177.91,177.92 0,78.03 46.83,143.57 115.48,168.54 -96.75,81.15 -159.18,199.75 -159.18,337.09 0,28.09 3.12,59.3 9.36,87.39 -31.21,-3.13 -59.3,-6.25 -90.51,-6.25 -62.42,0 -124.85,9.36 -184.14,21.85 3.12,-12.48 3.12,-24.96 3.12,-37.44 0,-165.43 -62.43,-315.24 -165.42,-427.6 134.2,0 240.33,-109.25 240.33,-240.33 0,-131.09 -106.12,-237.21 -240.33,-237.21 -131.09,0 -237.22,106.12 -237.22,237.21 0,28.09 6.25,53.06 12.49,78.03 -49.94,-21.85 -102.99,-37.44 -159.18,-43.69 0,-15.62 0,-28.09 0,-40.58 0,-327.72 -265.3,-593.02 -593.02,-593.02 -218.48,0 -411.99,118.6 -514.99,296.51 -59.31,-65.55 -146.7,-106.13 -243.45,-106.13 -187.27,0 -340.2,152.94 -340.2,340.21 0,103 46.81,193.5 118.6,255.93 -156.06,71.79 -287.15,193.52 -362.05,346.45 3.13,-28.08 6.24,-59.3 6.24,-90.51 0,-293.38 -227.84,-533.72 -514.98,-558.68 62.43,-96.76 109.24,-209.12 127.96,-330.85 28.1,28.07 71.79,46.81 115.49,46.81 90.52,0 165.42,-71.79 165.42,-162.3 0,-90.5 -74.92,-162.29 -165.42,-162.29 -40.58,0 -81.15,15.62 -109.25,40.58 -18.72,-171.67 -84.26,-327.72 -184.14,-455.69 59.3,-3.12 109.25,-56.17 109.25,-118.6 0,-65.55 -53.05,-118.6 -118.6,-118.6l-3.12 0c15.61,-37.45 24.96,-78.03 24.96,-121.73 0,-128.26 -70.83,-239.52 -174.31,-298.47l0 1832.22c57.77,-26.83 122.16,-41.85 189.93,-41.85 124.85,0 237.21,49.95 318.35,131.09 -71.78,-28.09 -149.82,-46.81 -230.96,-46.81 -100.41,0 -194.82,25.08 -277.32,69.28l0 1895.91c18.11,12.07 35.67,24.93 52.61,38.57 -17.28,-6.81 -34.83,-13.09 -52.61,-18.83l0 1738.24c47.48,-191.84 220.41,-333.63 427.14,-333.63l9.36 0c28.09,-109.24 127.96,-190.38 249.68,-190.38l0.01 0zm1235.97 -215.36c37.45,0 71.79,3.12 109.24,12.49 -290.26,53.05 -514.98,284.02 -558.68,571.17 15.61,0 31.21,0 46.81,0 121.73,0 234.09,31.2 327.72,90.5 -53.05,-12.48 -109.24,-18.73 -168.54,-18.73 -74.9,0 -146.69,9.36 -215.36,31.21l0 6.25 0 3.11c-3.12,-3.11 -3.12,-6.24 -6.25,-9.35 -305.86,90.51 -536.84,368.3 -555.56,702.25 -12.49,-53.05 -21.85,-109.24 -21.85,-165.42 0,-324.6 240.33,-589.89 552.43,-633.59 -6.25,-28.09 -9.35,-59.3 -9.35,-90.51 0,-274.66 224.72,-499.38 499.38,-499.38l0.01 0zm-705.37 -1925.75c59.3,0 115.48,15.6 168.54,40.58 -227.84,9.35 -418.24,149.82 -505.63,343.32 40.58,-9.35 81.14,-12.48 124.85,-12.48 131.08,0 252.81,43.69 346.44,118.6 -71.79,-21.86 -146.69,-34.34 -227.84,-34.34 -299.63,0 -558.69,177.91 -677.3,430.71 18.74,-227.84 171.67,-418.24 383.9,-486.9 0,-3.11 0,-6.24 0,-9.35 0,-215.36 171.67,-390.14 387.02,-390.14l0.02 0.01zm1023.73 490.03c109.24,0 212.23,37.45 293.39,99.88 -46.81,-12.49 -93.64,-18.74 -143.57,-18.74 -312.12,0 -561.82,252.82 -561.82,561.81 0,31.21 0,62.43 6.25,93.64 -46.81,-74.9 -74.9,-162.29 -74.9,-255.93 0,-265.3 215.36,-480.65 480.65,-480.65l0 -0.01zm1139.23 -833.34c168.54,0 321.47,59.3 440.08,159.17 -93.64,-40.57 -196.63,-59.3 -305.87,-59.3 -427.59,0 -780.29,340.21 -795.89,764.69 -15.61,-56.18 -21.85,-118.6 -21.85,-181.03 0,-377.65 305.86,-683.53 683.53,-683.53l0 -0.01zm-802.14 -661.68c152.94,0 287.15,62.43 383.91,165.42 -87.39,-43.69 -184.14,-68.65 -290.27,-68.65 -287.14,0 -533.72,184.13 -624.23,443.2l-3.12 -6.25c0,-293.39 240.33,-533.72 533.73,-533.72l-0.02 0zm-502.5 -624.25c124.85,0 240.33,43.7 327.72,121.73 -68.65,-21.85 -137.33,-34.34 -212.24,-34.34 -277.77,0 -518.11,174.79 -611.73,421.35 0,-6.25 0,-9.35 0,-12.48 0,-274.66 221.61,-496.27 496.27,-496.27l-0.02 0.01zm-664.81 714.75c96.75,0 187.27,21.85 271.54,56.18 -24.96,0 -46.81,0 -71.78,0 -433.85,0 -792.77,312.11 -867.69,720.99 -3.11,-31.21 -6.24,-68.66 -6.24,-103 0,-371.41 299.62,-674.16 674.16,-674.16l0.01 -0.01zm789.65 -3270.98c65.55,0 121.73,24.97 165.43,68.66 -31.21,-9.36 -65.55,-15.6 -99.88,-15.6 -131.09,0 -246.57,81.14 -293.39,199.75 0,-9.36 0,-15.6 0,-21.85 0,-127.97 102.99,-230.97 227.84,-230.97l0.01 0zm-933.23 614.87c71.79,0 137.34,37.45 174.78,93.64 -43.69,-31.21 -99.87,-49.94 -159.17,-49.94 -87.4,0 -165.43,40.57 -215.36,106.12 24.96,-87.39 106.12,-149.82 199.75,-149.82zm-430.73 171.66c74.91,0 143.58,31.21 193.52,81.15 -37.45,-12.49 -78.04,-21.86 -121.73,-21.86 -165.43,0 -305.87,115.48 -346.45,268.42 -3.11,-15.6 -3.11,-31.21 -3.11,-49.94 0,-152.94 121.73,-277.78 277.77,-277.78zm7877.79 7063.16c309,0 558.69,252.82 558.69,561.81 0,309 -249.69,558.69 -558.69,558.69 -312.11,0 -561.81,-249.69 -561.81,-558.69 0,-308.99 249.68,-561.81 561.81,-561.81zm-1457.57 2387.69c193.51,0 346.44,152.93 346.44,346.44 0,99.88 -43.69,193.52 -112.36,255.93 99.88,3.12 181.03,87.39 181.03,190.39 0,102.99 -84.27,187.27 -190.39,187.27 -102.99,0 -187.27,-84.28 -187.27,-187.27 0,-40.58 9.36,-78.03 31.21,-109.24 -21.85,6.24 -43.69,6.24 -68.65,6.24 -190.39,0 -343.33,-152.93 -343.33,-343.32 0,-193.52 152.94,-346.44 343.33,-346.44zm-1554.34 1360.82c90.51,0 162.3,71.79 162.3,162.3 0,90.51 -71.79,162.29 -162.3,162.29 -90.5,0 -162.29,-71.78 -162.29,-162.29 0,-90.51 71.79,-162.3 162.29,-162.3zm-1757.2 -2328.37c277.78,0 514.99,181.03 596.13,433.84 49.94,-78.03 137.34,-131.08 237.21,-131.08 156.06,0 280.91,127.97 280.91,280.91 0,156.05 -124.85,280.9 -280.91,280.9 -87.39,0 -168.54,-40.58 -218.47,-102.99 -34.34,146.69 -118.6,277.77 -234.09,365.16 187.27,74.91 321.48,259.06 321.48,474.43 0,280.9 -224.73,508.74 -505.64,508.74 -280.9,0 -508.74,-227.85 -508.74,-508.74 0,-143.57 59.3,-274.66 156.06,-365.17 -271.53,-71.79 -468.17,-315.25 -468.17,-608.63 0,-346.44 280.91,-627.35 624.23,-627.35l0 -0.01zm-958.2 1897.66c156.06,0 280.9,127.96 280.9,280.9 0,156.06 -124.84,280.91 -280.9,280.91 -152.94,0 -280.91,-124.85 -280.91,-280.91 0,-152.94 127.97,-280.9 280.91,-280.9zm-1395.15 2337.73c115.48,0 209.12,93.63 209.12,212.23 0,115.49 -93.64,212.24 -209.12,212.24 -118.6,0 -212.24,-96.74 -212.24,-212.24 0,-118.6 93.64,-212.23 212.24,-212.23zm5009.46 -10655.6c215.36,0 387.02,171.66 387.02,383.9 0,212.24 -171.67,383.9 -387.02,383.9 -212.24,0 -383.91,-171.66 -383.91,-383.9 0,-212.24 171.67,-383.9 383.91,-383.9zm1061.18 -284.03c90.51,0 165.43,74.91 165.43,165.43 0,12.48 -3.12,21.85 -3.12,31.21 9.36,-3.12 21.85,-6.25 34.34,-6.25 49.94,0 90.51,40.57 90.51,90.51 0,49.94 -40.58,90.5 -90.51,90.5 -46.81,0 -84.27,-34.33 -90.51,-81.14 -28.09,24.96 -65.55,40.58 -106.12,40.58 -90.51,0 -165.43,-74.9 -165.43,-165.43 0,-90.5 74.9,-165.42 165.43,-165.42l-0.02 0.01zm689.77 580.54c159.18,0 290.27,131.08 290.27,293.39 0,159.18 -131.09,290.26 -290.27,290.26 -162.29,0 -293.39,-131.08 -293.39,-290.26 0,-162.29 131.09,-293.39 293.39,-293.39zm-8351.73 4282.32c128.65,85.18 211.81,228.77 211.81,393.16 0,164.33 -84.15,308.54 -211.81,392.04l0 -785.21zm576.96 705.28c121.73,0 221.61,99.87 221.61,224.72 0,121.73 -99.88,224.73 -221.61,224.73 -124.85,0 -224.72,-103 -224.72,-224.73 0,-124.85 99.87,-224.72 224.72,-224.72zm2081.81 -833.35c74.9,0 140.44,62.43 140.44,140.45 0,74.9 -65.55,137.33 -140.44,137.33 -78.04,0 -140.45,-62.43 -140.45,-137.33 0,-78.04 62.44,-140.45 140.45,-140.45zm2063.08 237.2c78.04,0 140.44,62.43 140.44,140.45 0,74.9 -62.43,140.44 -140.44,140.44 -78.03,0 -140.44,-65.55 -140.44,-140.44 0,-78.04 62.43,-140.45 140.44,-140.45zm81.14 -1114.25c140.45,0 252.82,112.37 252.82,249.69 0,140.44 -112.36,249.69 -252.82,249.69 -137.33,0 -249.68,-109.25 -249.68,-249.69 0,-137.33 112.36,-249.69 249.68,-249.69zm955.08 -674.16c102.99,0 184.13,81.14 184.13,184.14 0,99.87 -81.14,184.13 -184.13,184.13 -99.88,0 -184.14,-84.27 -184.14,-184.13 0,-103 84.27,-184.14 184.14,-184.14zm-115.49 -486.9c65.55,0 118.6,53.05 118.6,118.6 0,65.55 -53.05,118.6 -118.6,118.6 -65.54,0 -118.6,-53.05 -118.6,-118.6 0,-65.55 53.06,-118.6 118.6,-118.6zm499.39 -1061.18c243.45,0 443.2,199.75 443.2,443.2 0,243.45 -199.75,443.2 -443.2,443.2 -243.45,0 -443.2,-199.75 -443.2,-443.2 0,-243.45 199.75,-443.2 443.2,-443.2zm-3002.55 -2356.48c237.21,0 427.59,193.52 427.59,430.72 0,237.21 -190.38,430.71 -427.59,430.71 -237.22,0 -430.72,-193.51 -430.72,-430.71 0,-237.22 193.52,-430.72 430.72,-430.72zm-2231.62 -68.66c65.55,0 118.6,53.06 118.6,118.6 0,65.55 -53.05,118.6 -118.6,118.6 -65.55,0 -118.6,-53.05 -118.6,-118.6 0,-65.54 53.05,-118.6 118.6,-118.6zm452.57 393.26c90.51,0 165.43,71.79 165.43,162.3 0,90.51 -74.91,162.29 -165.43,162.29 -90.51,0 -162.3,-71.78 -162.3,-162.29 0,-90.51 71.79,-162.3 162.3,-162.3zm2874.58 -302.75c121.73,0 224.73,99.88 224.73,224.73 0,124.85 -103,224.72 -224.73,224.72 -124.84,0 -227.84,-99.87 -227.84,-224.72 0,-124.85 103,-224.73 227.84,-224.73zm-2034.99 -1903.9c146.69,0 268.42,121.73 268.42,268.42 0,149.82 -121.73,271.54 -268.42,271.54 -149.82,0 -271.54,-121.73 -271.54,-271.54 0,-146.69 121.73,-268.42 271.54,-268.42z"/>
   <path class="fil0" d="M11073.39 17210.03c68.65,0 124.85,56.18 124.85,124.85 0,68.65 -56.19,124.84 -124.85,124.84 -68.66,0 -124.85,-56.18 -124.85,-124.84 0,-68.66 56.18,-124.85 124.85,-124.85zm8583.17 -1201.64c65.55,0 127.97,12.48 187.27,34.34 -12.49,0 -24.96,-3.12 -34.34,-3.12 -362.05,0 -661.68,271.54 -705.37,624.23 -6.25,-31.21 -9.36,-62.43 -9.36,-93.64 0,-309 252.82,-561.81 561.82,-561.81l-0.02 0zm-8395.89 2265.95c68.65,0 134.21,28.09 177.91,71.79 -37.45,-15.6 -78.04,-21.85 -121.73,-21.85 -134.22,0 -252.82,81.14 -305.87,193.51 3.12,-134.21 115.48,-243.45 249.69,-243.45zm-939.47 277.78c106.12,0 202.87,43.7 271.54,112.36 -59.3,-21.85 -121.73,-34.34 -187.27,-34.34 -205.99,0 -387.02,121.73 -465.05,299.63 0,-209.12 171.67,-377.65 380.79,-377.65zm5424.55 -814.62c40.58,0 81.14,18.74 106.13,46.82 -21.85,-9.36 -46.82,-12.49 -71.79,-12.49 -81.14,0 -152.94,49.94 -181.03,118.6 0,-3.12 0,-3.12 0,-6.25 0,-81.14 65.55,-146.69 146.69,-146.69l0 0.01zm1345.23 -1388.91c90.5,0 171.66,37.44 227.84,99.87 -46.81,-18.73 -99.88,-28.09 -152.94,-28.09 -171.66,0 -318.35,103 -380.78,252.82 0,-6.25 0,-12.49 0,-18.74 0,-168.54 137.33,-305.86 305.86,-305.86l0.02 0zm-93.64 2637.37c46.81,0 90.5,15.6 124.84,40.57 -21.85,-3.11 -43.69,-6.24 -65.54,-6.24 -121.73,0 -224.73,74.9 -265.31,177.91 0,0 0,-3.12 0,-6.25 0,-112.36 93.64,-205.99 205.99,-205.99l0.02 -0.01zm496.26 -109.25c90.51,0 171.67,37.45 227.85,99.88 -53.06,-24.96 -112.37,-40.58 -174.79,-40.58 -165.42,0 -308.99,106.13 -362.05,252.82l0 -3.12c0,-168.54 137.34,-309 309,-309zm1314 -861.43c53.06,0 103,24.96 134.22,62.43 -28.09,-12.49 -56.18,-18.74 -90.51,-18.74 -99.88,0 -190.38,62.43 -227.84,149.83 0,-3.12 0,-6.25 0,-9.36 0,-99.88 84.27,-184.14 184.14,-184.14l-0.02 -0.01zm1972.58 1473.18c68.66,0 131.09,28.09 177.91,74.9 -34.34,-12.48 -68.65,-15.6 -102.99,-15.6 -152.94,0 -280.91,90.51 -333.96,221.6 0,-6.24 0,-12.48 0,-21.85 0,-140.44 115.48,-259.05 259.05,-259.05l-0.01 0zm-951.96 -951.94c109.25,0 209.13,46.81 280.91,121.73 -62.43,-34.34 -134.21,-49.95 -209.12,-49.95 -227.84,0 -418.24,168.55 -449.44,390.14 -3.12,-24.96 -6.25,-49.94 -6.25,-78.03 0,-212.24 171.67,-383.9 383.9,-383.9zm820.87 -1142.34c123.24,0 237.59,32.92 336.65,89.87l0 -157.59c-9.74,19.72 -17.98,40.26 -24.53,61.48 -3.12,-6.25 -3.12,-12.49 -3.12,-18.74 0,-47.81 9.85,-93.44 27.65,-134.99l0 -950.08c-58.7,-15.28 -119.94,-22.92 -183.73,-22.92 -309,0 -574.29,190.39 -683.53,461.94 9.35,-309 265.3,-555.56 577.42,-555.56 104.35,0 203.94,28.43 289.83,78.55l0 -102.98c-85.93,-40.38 -182.03,-62.98 -283.6,-62.98 -68.66,0 -137.33,12.48 -199.75,31.21 28.08,-56.17 46.81,-118.6 46.81,-184.14 0,-212.24 -171.66,-387.02 -383.9,-387.02 -212.24,0 -383.9,171.67 -387.02,380.79 -37.45,-6.25 -74.9,-12.49 -115.48,-12.49l0.02 -0.01c-149.82,0 -290.26,53.05 -402.63,137.33 -37.45,-115.48 -146.69,-199.75 -271.54,-199.75 -159.18,0 -287.15,127.97 -287.15,287.14 0,156.06 127.97,287.15 287.15,287.15 6.23,0 15.6,-3.12 24.96,-3.12 -12.49,53.05 -21.85,106.11 -21.85,162.3 0,371.42 302.75,671.04 671.04,671.04 177.9,0 340.21,-68.65 458.81,-181.03 62.43,109.25 156.06,202.88 265.3,262.18 -299.64,106.12 -518.12,396.38 -518.12,736.59 0,152.94 46.82,299.63 124.85,421.35 -53.05,-21.85 -109.24,-34.34 -168.54,-34.34 -255.95,0 -461.94,209.12 -461.94,461.94 0,87.39 24.96,171.66 68.66,240.33 -6.25,0 -12.49,0 -18.74,0 -87.39,0 -159.17,71.78 -159.17,159.17 0,87.41 71.78,156.06 159.17,156.06 87.41,0 156.06,-68.67 156.06,-156.06 0,-6.24 0,-12.48 0,-15.6 71.79,46.81 159.18,74.9 255.94,74.9 252.81,0 458.8,-205.99 458.8,-458.8 0,-65.55 -12.48,-124.85 -37.44,-181.03 118.61,71.78 255.94,112.36 402.63,112.36 120.54,0 234.71,-27.4 336.65,-76.27l0 -1246.81c-86.27,-32.51 -179.44,-50.23 -277.33,-50.23 -327.72,0 -605.51,202.87 -724.11,486.9 53.05,-321.48 330.85,-568.04 664.81,-568.04l-0.02 0zm-486.91 -1766.58c84.28,0 159.18,31.21 212.24,84.28 -40.58,-12.49 -81.14,-18.74 -127.97,-18.74 -177.91,0 -327.72,112.37 -383.9,271.54 -3.12,-12.49 -3.12,-21.85 -3.12,-34.34 0,-168.54 137.34,-302.75 302.75,-302.75l0 0.01zm-1170.42 280.91c65.55,0 124.85,28.09 165.43,71.79 -28.09,-9.36 -59.3,-12.49 -93.64,-12.49 -137.33,0 -255.93,90.51 -290.26,218.48 -3.12,-15.61 -6.25,-34.34 -6.25,-49.95 0,-124.84 99.88,-227.84 224.72,-227.84zm-1907.02 383.9c193.51,0 352.69,156.06 352.69,349.57 0,196.63 -159.18,352.69 -352.69,352.69 -193.52,0 -352.7,-156.06 -352.7,-352.69 0,-193.52 159.18,-349.57 352.7,-349.57zm-1338.98 1398.28c103,0 187.27,84.27 187.27,190.38 0,103 -84.27,187.27 -187.27,187.27 -106.12,0 -190.38,-84.27 -190.38,-187.27 0,-106.12 84.27,-190.38 190.38,-190.38zm1251.59 1235.98c68.65,0 127.96,24.96 174.78,68.65 65.55,-109.24 181.03,-177.91 315.24,-177.91 205.99,0 371.42,165.43 371.42,368.3 0,202.87 -165.43,368.3 -371.42,368.3 -134.21,0 -249.68,-71.79 -315.24,-177.92 -46.82,40.58 -106.13,65.55 -174.78,65.55 -140.45,0 -255.94,-115.48 -255.94,-255.93 0,-143.57 115.48,-259.06 255.94,-259.06l0 0.02zm1804.02 -961.32c127.96,0 230.96,102.99 230.96,230.96 0,127.97 -103,230.96 -230.96,230.96 -127.97,0 -230.97,-102.99 -230.97,-230.96 0,-127.97 103,-230.96 230.97,-230.96zm1978.82 1460.7c78.27,0 149.88,27.8 205.56,74.07l0 496.64c-55.67,46.96 -127.29,75.36 -205.56,75.36 -177.91,0 -324.6,-146.69 -324.6,-324.6 0,-177.91 146.69,-321.47 324.6,-321.47zm-9538.25 -1229.73c159.18,0 287.15,127.97 287.15,287.14 0,159.18 -127.97,290.27 -287.15,290.27 -159.18,0 -290.26,-131.09 -290.26,-290.27 0,-159.17 131.08,-287.14 290.26,-287.14zm-930.1 246.57c262.17,0 477.54,215.36 477.54,480.65 0,262.17 -215.36,477.54 -477.54,477.54 -265.3,0 -480.65,-215.36 -480.65,-477.54 0,-265.31 215.36,-480.65 480.65,-480.65z"/>
  </g>
 </g>
</svg>
