<svg width="48" height="48" viewBox="0 0 48 48" fill="none" xmlns="http://www.w3.org/2000/svg">
<path d="M28.5 11.4167C29.1409 11.4167 29.7556 11.6713 30.2088 12.1245C30.6621 12.5777 30.9167 13.1924 30.9167 13.8333V33.1667C30.9167 33.8076 30.6621 34.4223 30.2088 34.8755C29.7556 35.3287 29.1409 35.5833 28.5 35.5833H18.8333C18.1924 35.5833 17.5777 35.3287 17.1245 34.8755C16.6713 34.4223 16.4167 33.8076 16.4167 33.1667V13.8333C16.4167 13.1924 16.6713 12.5777 17.1245 12.1245C17.5777 11.6713 18.1924 11.4167 18.8333 11.4167H28.5ZM18.8333 9C17.5515 9 16.3221 9.50922 15.4157 10.4157C14.5092 11.3221 14 12.5515 14 13.8333V33.1667C14 34.4485 14.5092 35.6779 15.4157 36.5843C16.3221 37.4908 17.5515 38 18.8333 38H28.5C29.7819 38 31.0113 37.4908 31.9177 36.5843C32.8241 35.6779 33.3333 34.4485 33.3333 33.1667V13.8333C33.3333 12.5515 32.8241 11.3221 31.9177 10.4157C31.0113 9.50922 29.7819 9 28.5 9H18.8333Z" fill="white"/>
<path d="M23.6667 33.1666C24.3076 33.1666 24.9223 32.912 25.3755 32.4588C25.8287 32.0055 26.0833 31.3909 26.0833 30.7499C26.0833 30.109 25.8287 29.4943 25.3755 29.0411C24.9223 28.5879 24.3076 28.3333 23.6667 28.3333C23.0257 28.3333 22.411 28.5879 21.9578 29.0411C21.5046 29.4943 21.25 30.109 21.25 30.7499C21.25 31.3909 21.5046 32.0055 21.9578 32.4588C22.411 32.912 23.0257 33.1666 23.6667 33.1666Z" fill="white"/>
</svg>
